<svg xmlns="http://www.w3.org/2000/svg" viewBox="0 0 37.343 37.652" fill="none"
     role="img" aria-label="Orange butterfly">
  <svg width="18.856" height="34.228" viewBox="-0.0000057220458984375 -0.0000019073486328125 18.85567283630371 34.227712631225586" preserveAspectRatio="none">
    <path d="M18.7043 21.97928c1.65228-3.85535-10.64803-24.78421-16.15562-21.66324-2.57021 1.2851 0 5.87476-1.4687 8.81216-2.93739 10.64804 1.46869 13.95261 7.52705 13.76899-5.5076 0-11.19878 3.48816-7.34346 9.36294 5.32401 6.05832 12.3003-3.67172 16.70638-5.14044l0.73435-5.14041z" fill="#E98A55"/>
    <path d="M18.7043 21.97928c1.65228-3.85535-10.64803-24.78421-16.15562-21.66324-2.57021 1.2851 0 5.87476-1.4687 8.81216-2.93739 10.64804 1.46869 13.95261 7.52705 13.76899-5.5076 0-11.19878 3.48816-7.34346 9.36294 5.32401 6.05832 12.3003-3.67172 16.70638-5.14044l0.73435-5.14041z" fill="none" stroke="#C1471A" stroke-width="1.301" stroke-linecap="round" stroke-linejoin="round" vector-effect="non-scaling-stroke"/>
  </svg>
  <svg x="10.259" y="9.312" width="5.691" height="12.668" viewBox="0 0 5.691180229187012 12.66748046875" preserveAspectRatio="none">
    <path d="M5.69118 12.66748c-0.18359-5.14044-2.7538-10.09729-5.69118-12.66748" fill="none" stroke="#C1471A" stroke-width="1" stroke-linecap="round" stroke-linejoin="round" vector-effect="non-scaling-stroke"/>
  </svg>
  <svg x="15.318" y="9.924" width="22.025" height="27.728" viewBox="-0.0000019073486328125 -0.0000133514404296875 22.025428771972656 27.727689743041992" preserveAspectRatio="none">
    <path d="M5.22216 18.48029c0.55077 0.91794 0.91794 5.87479-2.93738 8.62857-3.48815 2.93741-2.57022-5.14041 0-12.48389l12.85106-11.93314c8.44498-5.5076 8.44498-1.46866 3.67174 2.38663l-3.30456 4.03891c-0.36718 1.83588-4.03891 11.0152-9.54651 9.36292l-0.73435 0z" fill="#E98A55"/>
    <path d="M5.22216 18.48029c0.55077 0.91794 0.91794 5.87479-2.93738 8.62857-3.48815 2.93741-2.57022-5.14041 0-12.48389l12.85106-11.93314c8.44498-5.5076 8.44498-1.46866 3.67174 2.38663l-3.30456 4.03891c-0.36718 1.83588-4.03891 11.0152-9.54651 9.36292l-0.73435 0z" fill="none" stroke="#C1471A" stroke-width="1.301" stroke-linecap="round" stroke-linejoin="round" vector-effect="non-scaling-stroke"/>
  </svg>
  <svg x="6.22" y="12.066" width="9.73" height="12.851" viewBox="0 0 9.730090141296387 12.85103988647461" preserveAspectRatio="none">
    <path d="M9.73009 12.85104c-1.83587-5.69119-4.77325-9.54651-9.73009-12.85104" fill="none" stroke="#C1471A" stroke-width="1" stroke-linecap="round" stroke-linejoin="round" vector-effect="non-scaling-stroke"/>
  </svg>
  <svg x="5.957" y="24.284" width="9.443" height="4.855" viewBox="-0.00000762939453125 -0.000008761882781982422 9.442927360534668 4.855358779430389" preserveAspectRatio="none">
    <path d="M9.44292 0.63287c-5.87477-1.83585-11.0152 0.55075-8.99575 4.22248" fill="none" stroke="#C1471A" stroke-width="1" stroke-linecap="round" stroke-linejoin="round" vector-effect="non-scaling-stroke"/>
  </svg>
  <svg x="18.337" y="11.698" width="1" height="9.547" viewBox="0 0 1 9.546540260314941" preserveAspectRatio="none">
    <path d="M0 9.54654c0.36717-2.57022 1.10152-6.79272 0.91794-9.54654" fill="none" stroke="#C1471A" stroke-width="1" stroke-linecap="round" stroke-linejoin="round" vector-effect="non-scaling-stroke"/>
  </svg>
  <svg x="12.679" y="24.733" width="4.924" height="7.939" viewBox="-0.0000020563602447509766 4.76837158203125e-7 4.923872143030167 7.938839435577393" preserveAspectRatio="none">
    <path d="M4.74028 2.01947c-0.18359 1.1015-3.85532 7.15985-4.58967 5.69116-0.91793-1.2851 2.57021-6.05835 4.77326-7.71063l-0.18359 2.01947z" fill="#C1471A"/>
  </svg>
  <svg x="19.439" y="12.066" width="5.691" height="7.711" viewBox="0 0 5.691180229187012 7.710629940032959" preserveAspectRatio="none">
    <path d="M0 7.71063c0.73435-2.57025 2.20304-6.05838 5.69118-7.71063" fill="none" stroke="#C1471A" stroke-width="1" stroke-linecap="round" stroke-linejoin="round" vector-effect="non-scaling-stroke"/>
  </svg>
  <svg x="17.419" y="20.256" width="4.773" height="5.762" viewBox="0 -0.000013828277587890625 4.773250102996826 5.761703968048096" preserveAspectRatio="none">
    <path d="M0.91793 5.76169c-0.55077-0.36716-0.91793-1.2851-0.91793-1.2851 0.55076-1.83588 3.85532-6.05835 4.77325-3.85531l-3.85532 5.14041z" fill="#C1471A"/>
  </svg>
  <svg x="20.357" y="12.049" width="4.59" height="7.36" viewBox="0 0.000003337860107421875 4.589660167694092 7.359916687011719" preserveAspectRatio="none">
    <path d="M0 7.35992c0-1.83585 2.93738-7.71066 4.58966-7.34344" fill="none" stroke="#C1471A" stroke-width="1" stroke-linecap="round" stroke-linejoin="round" vector-effect="non-scaling-stroke"/>
  </svg>
  <svg x="20.54" y="28.405" width="1.652" height="0" viewBox="1.1920928955078125e-7 0 1.6522799730300903 0" preserveAspectRatio="none">
    <path d="M0.55077 0c0.36717 0 0.91794 0 1.10151 0l-1.65228 0 0.55077 0z" fill="#C1471A"/>
  </svg>
  <svg x="20.173" y="10.964" width="1.102" height="5.508" viewBox="0 0 1.1015199422836304 5.507599830627441" preserveAspectRatio="none">
    <path d="M0.18359 0.18359l-0.18359 5.32401 1.10152-5.5076-0.91793 0.18359z" fill="#C1471A"/>
  </svg>
  <svg x="20.357" y="20.143" width="4.406" height="2.937" viewBox="0 0 4.4060797691345215 2.9374101161956787" preserveAspectRatio="none">
    <path d="M4.40608 0l-4.40608 2.93741" fill="none" stroke="#C1471A" stroke-width="1" stroke-linecap="round" stroke-linejoin="round" vector-effect="non-scaling-stroke"/>
  </svg>
  <svg x="8.423" y="26.569" width="4.773" height="3.672" viewBox="0 0 4.773250102996826 3.671720027923584" preserveAspectRatio="none">
    <path d="M4.77325 0l-4.77325 3.67172" fill="none" stroke="#C1471A" stroke-width="1" stroke-linecap="round" stroke-linejoin="round" vector-effect="non-scaling-stroke"/>
  </svg>
  <svg x="5.853" y="25.467" width="8.261" height="3.855" viewBox="0 0 8.26140022277832 3.8553199768066406" preserveAspectRatio="none">
    <path d="M8.2614 0c-1.2851 0-4.22249 0-8.2614 3.85532" fill="none" stroke="#C1471A" stroke-width="1" stroke-linecap="round" stroke-linejoin="round" vector-effect="non-scaling-stroke"/>
  </svg>
  <svg x="17.551" y="32.077" width="1" height="3.121" viewBox="0.000003762543201446533 0 1 3.1209700107574463" preserveAspectRatio="none">
    <path d="M0.05141 0c-0.18359 1.10153 0.18358 2.20303 0.18358 3.12097" fill="none" stroke="#C1471A" stroke-width="1" stroke-linecap="round" stroke-linejoin="round" vector-effect="non-scaling-stroke"/>
  </svg>
</svg>
